<?xml version="1.0" encoding="UTF-8"?>
<svg width="12px" height="25px" viewBox="0 0 12 25" version="1.1" xmlns="http://www.w3.org/2000/svg" xmlns:xlink="http://www.w3.org/1999/xlink">
    <title>箭头1</title>
    <g id="新鸿蒙" stroke="none" stroke-width="1" fill="none" fill-rule="evenodd">
        <g id="画板" transform="translate(-91.000000, -244.000000)">
            <g id="箭头1" transform="translate(91.000000, 244.593462)">
                <rect id="矩形备份" x="0" y="-2.48689958e-14" width="12" height="24"></rect>
                <path d="M3.87694855,5.78259065 L3.90900974,5.8128513 L8.85875721,10.7625988 C9.52793686,11.4317784 9.5418781,12.508071 8.90058094,13.1942137 L8.85875721,13.2374725 L3.90900974,18.18722 C3.78013673,18.316093 3.61603228,18.3882619 3.44770007,18.4037266 L3.40170975,18.4065384 L3.35564956,18.4065384 C3.17145537,18.4009149 2.98893832,18.3278087 2.84834957,18.18722 C2.56591682,17.9047872 2.55582994,17.4531405 2.81808892,17.158621 L2.84834957,17.1265598 L7.44454365,12.5303657 C7.72697639,12.247933 7.73706328,11.7962862 7.4748043,11.5017667 L7.44454365,11.4697056 L2.84834957,6.87351148 C2.55545635,6.58061826 2.55545635,6.10574452 2.84834957,5.8128513 C2.98956594,5.67163493 3.17308582,5.59850502 3.35811654,5.59346158 L3.40438209,5.59361919 C3.57396473,5.59939813 3.74196046,5.66238862 3.87694855,5.78259065 Z" id="箭头" fill="#000000" fill-rule="nonzero" opacity="0.200000003"></path>
            </g>
        </g>
    </g>
</svg>